<svg version="1.2" xmlns="http://www.w3.org/2000/svg" viewBox="0 0 500 500" width="500" height="500">
	<title>bg-svg</title>
	<style>
		.s0 { fill: #f5f5f5 } 
	</style>
	<g id="Background_complete">
		<g id="Layer">
			<g id="Layer">
			</g>
		</g>
		<g id="Layer">
			<g id="Layer">
			</g>
		</g>
		<g id="Layer">
			<g id="Layer">
			</g>
		</g>
		<g id="Layer">
			<g id="Layer">
				<path id="Layer" class="s0" d="m117.4 313.8c-1.3-1-3.3-1.1-4.7-0.2-1.9-3.9-7.2-5.5-10.9-3.5-1-4.2-5.1-7.3-9.3-7.3-4.3 0.1-8.3 3.3-9.2 7.5-0.1 0.7-0.2 1.4-0.7 1.9-0.7 0.7-2 0.5-3.1 0.4-3.4-0.3-6.9 2.1-7.8 5.5l47.3-0.2c0.4-1.6-0.3-3.1-1.6-4.1z"/>
			</g>
		</g>
		<g id="Layer">
			<g id="Layer">
				<path id="Layer" class="s0" d="m444.6 314.1c-1.3-1-3.3-1.2-4.7-0.3-1.9-3.9-7.2-5.5-10.9-3.5-1-4.2-5.1-7.3-9.3-7.3-4.3 0.1-8.3 3.3-9.1 7.5-0.2 0.7-0.3 1.4-0.8 1.9-0.7 0.7-2 0.5-3.1 0.4-3.4-0.3-6.9 2.1-7.8 5.5l47.3-0.2c0.4-1.6-0.3-3.1-1.6-4z"/>
			</g>
		</g>
		<g id="Layer">
			<g id="Layer">
				<path id="Layer" class="s0" d="m349.2 286.3c-1.3-1-3.2-1.1-4.7-0.3-1.9-3.8-7.1-5.5-10.9-3.5-1-4.1-5.1-7.3-9.3-7.2-4.2 0-8.2 3.3-9.1 7.4-0.2 0.7-0.3 1.4-0.7 1.9-0.8 0.8-2.1 0.5-3.2 0.4-3.4-0.2-6.9 2.2-7.8 5.5l47.3-0.2c0.4-1.6-0.3-3-1.6-4z"/>
			</g>
		</g>
		<g id="Layer">
			<g id="Layer">
				<path id="Layer" class="s0" d="m227.5 147.2c-1.4-1.1-3.5-1.2-5.1-0.3-2.1-4.2-7.9-6.1-12-3.8-1.1-4.6-5.6-8.1-10.3-8-4.6 0-9 3.6-10 8.2-0.1 0.7-0.2 1.5-0.7 2.1-0.9 0.8-2.3 0.5-3.5 0.4-3.8-0.3-7.6 2.4-8.6 6l52-0.2c0.5-1.7-0.3-3.3-1.8-4.4z"/>
			</g>
		</g>
		<g id="Layer">
			<g id="Layer">
				<path id="Layer" class="s0" d="m353.4 147.2c-1.5-1.1-3.6-1.2-5.2-0.3-2-4.2-7.8-6.1-12-3.8-1.1-4.6-5.5-8.1-10.2-8-4.7 0-9.1 3.6-10 8.2-0.2 0.7-0.3 1.5-0.8 2.1-0.8 0.8-2.3 0.5-3.5 0.4-3.7-0.3-7.5 2.4-8.6 6l52.1-0.2c0.4-1.7-0.4-3.3-1.8-4.4z"/>
			</g>
		</g>
		<g id="Layer">
			<g id="Layer">
			</g>
		</g>
		<g id="Layer">
			<g id="Layer">
				<path id="Layer" class="s0" d="m459.9 147.1c-1.4-1.1-3.4-1.2-4.9-0.3-2-4.1-7.6-5.8-11.5-3.7-1.1-4.4-5.3-7.7-9.8-7.7-4.5 0.1-8.7 3.5-9.6 7.9-0.2 0.7-0.2 1.5-0.7 2-0.9 0.8-2.2 0.5-3.3 0.4-3.7-0.3-7.3 2.3-8.3 5.8l49.8-0.2c0.5-1.7-0.3-3.2-1.7-4.2z"/>
			</g>
		</g>
	</g>
</svg>