<svg version="1.2" xmlns="http://www.w3.org/2000/svg" viewBox="0 0 500 500" width="500" height="500">
	<title>31210233_7780055-svg</title>
	<defs>
		<clipPath clipPathUnits="userSpaceOnUse" id="cp1">
			<path d="m357.02 62.94h3.6v47.67h-3.6z"/>
		</clipPath>
		<clipPath clipPathUnits="userSpaceOnUse" id="cp2">
			<path d="m357.02 62.94h3.6v47.67h-3.6z"/>
		</clipPath>
		<clipPath clipPathUnits="userSpaceOnUse" id="cp3">
			<path d="m357.02 62.94h3.6v47.67h-3.6z"/>
		</clipPath>
	</defs>
	<style>
		.s0 { fill: #f5f5f5 } 
		.s1 { fill: #263238 } 
		.s2 { opacity: .3;fill: #ffffff } 
		.s3 { fill: #407bff } 
		.s4 { opacity: .6;fill: #ffffff } 
		.s5 { opacity: .3;fill: #000000 } 
	</style>
	<g id="Shadow">
		<g id="Layer">
			<g id="Layer">
				<path id="Layer" class="s0" d="m459.6 442.3c0 3.3-93.5 6.1-208.8 6.1-115.4 0-208.9-2.8-208.9-6.1 0-3.4 93.5-6.2 208.9-6.2 115.3 0 208.8 2.8 208.8 6.2z"/>
			</g>
		</g>
	</g>
	<g id="Tower">
		<g id="Layer">
			<g id="Layer">
				<path id="Layer" class="s1" d="m343.9 110.7q0-10.5 0-20.9c0-0.5-0.8-0.5-0.8 0q0 10.4 0 20.9c0 0.4 0.8 0.4 0.8 0z"/>
				<path id="Layer" class="s2" d="m343.9 110.7q0-10.5 0-20.9c0-0.5-0.8-0.5-0.8 0q0 10.4 0 20.9c0 0.4 0.8 0.4 0.8 0z"/>
			</g>
			<path id="Layer" class="s3" d="m357 62.9h3.6v47.7h-3.6z"/>
			<g id="Layer">
				<path id="Layer" class="s1" d="m350.4 87.8q0-10.4 0-20.9c0-0.5-0.8-0.5-0.8 0q0 10.5 0 20.9c0 0.5 0.8 0.5 0.8 0z"/>
				<path id="Layer" class="s2" d="m350.4 87.8q0-10.4 0-20.9c0-0.5-0.8-0.5-0.8 0q0 10.5 0 20.9c0 0.5 0.8 0.5 0.8 0z"/>
			</g>
			<path id="Layer" class="s1" d="m368.4 100.4h4.1v11.2h-4.1z"/>
			<path id="Layer" class="s3" d="m326.3 235.6l-25.9-70.1h120.4l-25.9 70.1z"/>
			<path id="Layer" class="s4" d="m306.8 182.7l107.6 0.3-10.3 27.8h-87z"/>
			<path id="Layer" class="s3" d="m300.4 165.5l34.8-8.7h49.8l35.8 8.7z"/>
			<path id="Layer" class="s3" d="m336 156.8v-10.3l48.5-0.2v10.5z"/>
			<path id="Layer" class="s3" d="m336 146.5l-10.8-27.6h69.8l-10.5 27.6z"/>
			<path id="Layer" class="s3" d="m325.2 118.9l12.5-8.3h45.4l11.9 8.3z"/>
			<path id="Layer" class="s3" d="m333.6 235.6h53.4v195.2h-53.4z"/>
			<path id="Layer" class="s1" d="m370.8 100.8q0-10.5 0-20.9c0-0.5-0.8-0.5-0.8 0q0 10.4 0 20.9c0 0.5 0.8 0.5 0.8 0z"/>
			<path id="Layer" class="s1" d="m348 87.5h4.2v23.1h-4.2z"/>
			<g id="Layer">
				<g id="Clip-Path" clip-path="url(#cp1)">
					<path id="Layer" class="s2" d="m360.6 66.9l-3.6 5.2v8.5l3.6-5.5z"/>
				</g>
				<g id="Clip-Path" clip-path="url(#cp2)">
					<path id="Layer" class="s2" d="m360.6 84l-3.6 5.2v8.4l3.6-5.5z"/>
				</g>
				<g id="Clip-Path" clip-path="url(#cp3)">
					<path id="Layer" class="s2" d="m360.6 101l-3.6 5.2v8.4l3.6-5.4z"/>
				</g>
			</g>
			<path id="Layer" class="s2" d="m348 87.5h4.2v23.1h-4.2z"/>
			<path id="Layer" class="s4" d="m327.2 124l6.9 17.5h52.3l6.7-17.5z"/>
			<path id="Layer" class="s2" d="m325.2 118.9l12.5-8.3h45.4l11.9 8.3z"/>
			<path id="Layer" class="s3" d="m336.5 124h0.3v17.5h-0.3z"/>
			<path id="Layer" class="s3" d="m331.8 136.5h56.4v0.3h-56.4z"/>
			<path id="Layer" class="s3" d="m329.1 129h62v0.2h-62z"/>
			<path id="Layer" class="s3" d="m346.3 124h0.3v17.5h-0.3z"/>
			<path id="Layer" class="s3" d="m356.1 124h0.3v17.5h-0.3z"/>
			<path id="Layer" class="s3" d="m365.9 124h0.3v17.5h-0.3z"/>
			<path id="Layer" class="s3" d="m375.7 124h0.3v17.5h-0.3z"/>
			<path id="Layer" class="s3" d="m385.5 124h0.3v17.5h-0.3z"/>
			<path id="Layer" class="s5" d="m328.1 126.2h64.1l0.9-2.2h-65.9z"/>
			<path id="Layer" class="s5" d="m300.4 165.5l34.8-8.7h49.8l35.8 8.7z"/>
			<path id="Layer" class="s4" d="m334.1 141.5l13.9-17.5h8.3l-14.3 17.5z"/>
			<path id="Layer" class="s4" d="m344.6 141.5l13.9-17.5h3l-14.3 17.5z"/>
			<path id="Layer" class="s3" d="m318.3 180.4h0.2l0.8 31.1h-0.3z"/>
			<path id="Layer" class="s3" d="m334.3 180.4h0.3l0.7 31.1h-0.2z"/>
			<path id="Layer" class="s3" d="m350.4 180.4h0.2l0.8 31h-0.3z"/>
			<path id="Layer" class="s3" d="m366.4 180.4h0.3l0.7 31.1h-0.2z"/>
			<path id="Layer" class="s3" d="m382.5 180.4h0.2l0.8 31.1h-0.3z"/>
			<path id="Layer" class="s3" d="m398.5 180.4h0.3l0.7 31h-0.2z"/>
			<path id="Layer" class="s3" d="m310.3 191.3h100.7v0.3h-100.7z"/>
			<path id="Layer" class="s3" d="m314.3 203h92v0.2h-92z"/>
			<path id="Layer" class="s5" d="m306.8 182.7l1.1 3h105.5l1-2.7z"/>
			<path id="Layer" class="s4" d="m323.7 210.8l22.2-28h13.3l-22.8 28z"/>
			<path id="Layer" class="s4" d="m369.6 210.8l22.2-28h13.2l-22.8 28z"/>
			<path id="Layer" class="s4" d="m340.5 210.8l22.2-28h4.8l-22.8 28z"/>
			<path id="Layer" class="s5" d="m333.6 235.6h53.4v6.6h-53.4z"/>
			<path id="Layer" class="s2" d="m336 156.8v-10.3l48.5-0.2v10.5z"/>
			<g id="Layer">
				<path id="Layer" class="s4" d="m348.3 274.8l10.4-19.1h13.2l-10.9 19.1z"/>
				<path id="Layer" class="s4" d="m365.1 274.8l11.1-19.1h4.8l-11.7 19.1z"/>
				<path id="Layer" class="s4" d="m343.6 255.7h43.4v19.1h-43.4z"/>
				<path id="Layer" class="s3" d="m351.8 254.9h0.2v20.7h-0.2z"/>
				<path id="Layer" class="s3" d="m343.6 265.1h43.4v0.3h-43.4z"/>
				<path id="Layer" class="s3" d="m362.2 254.9h0.2v20.7h-0.2z"/>
				<path id="Layer" class="s3" d="m372.6 254.9h0.2v20.7h-0.2z"/>
				<path id="Layer" class="s3" d="m382.4 254.9h0.2v20.7h-0.2z"/>
				<path id="Layer" class="s5" d="m343.6 255.7v2.3h43.4v-2.3h-43.1"/>
			</g>
			<g id="Layer">
				<path id="Layer" class="s4" d="m348.3 305.8l10.4-19.1h13.2l-10.9 19.1z"/>
				<path id="Layer" class="s4" d="m365.1 305.8l11.1-19.1h4.8l-11.7 19.1z"/>
				<path id="Layer" class="s4" d="m343.6 286.7h43.4v19.1h-43.4z"/>
				<path id="Layer" class="s3" d="m351.8 285.9h0.2v20.8h-0.2z"/>
				<path id="Layer" class="s3" d="m343.6 296.1h43.4v0.3h-43.4z"/>
				<path id="Layer" class="s3" d="m362.2 285.9h0.2v20.8h-0.2z"/>
				<path id="Layer" class="s3" d="m372.6 285.9h0.2v20.8h-0.2z"/>
				<path id="Layer" class="s3" d="m382.4 285.9h0.2v20.8h-0.2z"/>
				<path id="Layer" class="s5" d="m343.6 286.7v2.3h43.4v-2.3h-43.1"/>
			</g>
			<g id="Layer">
				<path id="Layer" class="s4" d="m348.3 337.4l10.4-19.1h13.2l-10.9 19.1z"/>
				<path id="Layer" class="s4" d="m365.1 337.4l11.1-19.1h4.8l-11.7 19.1z"/>
				<path id="Layer" class="s4" d="m343.6 318.3h43.4v19.1h-43.4z"/>
				<path id="Layer" class="s3" d="m351.8 317.5h0.2v20.8h-0.2z"/>
				<path id="Layer" class="s3" d="m343.6 327.7h43.4v0.3h-43.4z"/>
				<path id="Layer" class="s3" d="m362.2 317.5h0.2v20.8h-0.2z"/>
				<path id="Layer" class="s3" d="m372.6 317.5h0.2v20.8h-0.2z"/>
				<path id="Layer" class="s3" d="m382.4 317.5h0.2v20.8h-0.2z"/>
				<path id="Layer" class="s5" d="m343.6 318.3v2.3h43.4v-2.3h-43.1"/>
			</g>
			<g id="Layer">
				<path id="Layer" class="s4" d="m348.3 368.3l10.4-19.1h13.2l-10.9 19.1z"/>
				<path id="Layer" class="s4" d="m365.1 368.3l11.1-19.1h4.8l-11.7 19.1z"/>
				<path id="Layer" class="s4" d="m343.6 349.2h43.4v19h-43.4z"/>
				<path id="Layer" class="s3" d="m351.8 348.3h0.2v20.8h-0.2z"/>
				<path id="Layer" class="s3" d="m343.6 358.6h43.4v0.2h-43.4z"/>
				<path id="Layer" class="s3" d="m362.2 348.3h0.2v20.8h-0.2z"/>
				<path id="Layer" class="s3" d="m372.6 348.3h0.2v20.8h-0.2z"/>
				<path id="Layer" class="s3" d="m382.4 348.3h0.2v20.8h-0.2z"/>
				<path id="Layer" class="s5" d="m343.6 349.2v2.3h43.4v-2.3h-43.1"/>
			</g>
			<g id="Layer">
				<path id="Layer" class="s4" d="m348.3 399.1l10.4-19.1h13.2l-10.9 19.1z"/>
				<path id="Layer" class="s4" d="m365.1 399.1l11.1-19.1h4.8l-11.7 19.1z"/>
				<path id="Layer" class="s4" d="m343.6 380h43.4v19.1h-43.4z"/>
				<path id="Layer" class="s3" d="m351.8 379.2h0.2v20.7h-0.2z"/>
				<path id="Layer" class="s3" d="m343.6 389.4h43.4v0.3h-43.4z"/>
				<path id="Layer" class="s3" d="m362.2 379.2h0.2v20.7h-0.2z"/>
				<path id="Layer" class="s3" d="m372.6 379.2h0.2v20.7h-0.2z"/>
				<path id="Layer" class="s3" d="m382.4 379.2h0.2v20.7h-0.2z"/>
				<path id="Layer" class="s5" d="m343.6 380v2.3h43.4v-2.3h-43.1"/>
			</g>
			<path id="Layer" class="s5" d="m322.4 165.5l14.6 70.1h-10.7l-25.9-70.1z"/>
			<path id="Layer" class="s5" d="m325.2 118.9l10.8 27.6v10.3h4.5v-10.4l-8.7-27.5 5.9-8.3z"/>
			<path id="Layer" class="s5" d="m333.6 235.6h6.9v195.2h-6.9z"/>
		</g>
	</g>
	<g id="Building">
		<g id="Layer">
			<path id="Layer" class="s3" d="m411.3 439.4h-293.6l-37.4-95h340z"/>
			<path id="Layer" class="s4" d="m300.1 431.4h-185.6l-29.5-75.1h215.1z"/>
			<path id="Layer" class="s4" d="m147.9 431.5l40.8-75.2h52l-42.9 75.2z"/>
			<path id="Layer" class="s4" d="m213.8 431.5l43.8-75.2h19.1l-46 75.2z"/>
			<g id="Layer">
				<path id="Layer" class="s4" d="m377.8 386.1l10.3-19.1h13.3l-10.9 19.1z"/>
				<path id="Layer" class="s4" d="m394.5 386.1l11.2-19.1h4.8l-11.7 19.1z"/>
				<path id="Layer" class="s4" d="m416.2 386.1h-72.6v-19.1h74.5z"/>
				<path id="Layer" class="s3" d="m381.3 366.2h0.2v20.8h-0.2z"/>
				<path id="Layer" class="s3" d="m370.8 366.2h0.3v20.8h-0.3z"/>
				<path id="Layer" class="s3" d="m360.4 366.2h0.3v20.8h-0.3z"/>
				<path id="Layer" class="s3" d="m350 366.2h0.3v20.8h-0.3z"/>
				<path id="Layer" class="s3" d="m343.6 376.5h73.6v0.2h-73.6z"/>
				<path id="Layer" class="s3" d="m391.6 366.2h0.3v20.8h-0.3z"/>
				<path id="Layer" class="s3" d="m402 366.2h0.3v20.8h-0.3z"/>
				<path id="Layer" class="s3" d="m411.8 366.2h0.3v20.8h-0.3z"/>
				<path id="Layer" class="s5" d="m343.6 367v2.4h74.2l0.3-2.4h-73.9"/>
			</g>
			<g id="Layer">
				<path id="Layer" class="s3" d="m161.8 353h0.5v81.8h-0.5z"/>
				<path id="Layer" class="s3" d="m120.7 353h0.5v81.8h-0.5z"/>
				<path id="Layer" class="s3" d="m100.7 393.6h199.4v0.5h-199.4z"/>
				<path id="Layer" class="s3" d="m202.7 353h0.5v81.8h-0.5z"/>
				<path id="Layer" class="s3" d="m243.6 353h0.5v81.8h-0.5z"/>
				<path id="Layer" class="s3" d="m282.2 353h0.5v81.8h-0.5z"/>
			</g>
			<path id="Layer" class="s5" d="m85 356.3h215.1v2.7h-214.1z"/>
			<g id="Layer">
				<path id="Layer" class="s5" d="m334 412.3h62.1v27.1h-62.1z"/>
				<path id="Layer" class="s1" d="m340.3 419.2h49.6v20.2h-49.6z"/>
				<path id="Layer" class="s3" d="m343.2 421.5h7.1v17.9h-7.1z"/>
				<path id="Layer" class="s3" d="m352.6 421.5h7.1v17.9h-7.1z"/>
				<path id="Layer" class="s3" d="m361.9 421.5h7.1v17.9h-7.1z"/>
				<path id="Layer" class="s3" d="m371.2 421.5h7.1v17.9h-7.1z"/>
				<path id="Layer" class="s3" d="m380.6 421.5h7.1v17.9h-7.1z"/>
				<path id="Layer" class="s5" d="m343.2 423.1c0 0 44.5 0.1 44.5 0 0-0.2 0-1.6 0-1.6h-44.5z"/>
				<path id="Layer" class="s2" d="m343.2 439.4l7.1-6.1v6.1z"/>
				<path id="Layer" class="s2" d="m352.6 431.5l7.1-6.3v14.2h-7.1z"/>
				<path id="Layer" class="s2" d="m361.8 432.1l7.1-6.3v13.6h-7.1z"/>
			</g>
			<g id="Layer">
				<path id="Layer" class="s3" d="m260.9 339.7h-36.7c-0.2 0-0.3-0.1-0.3-0.2 0-0.2 0.1-0.3 0.3-0.3h36.7c0.1 0 0.2 0.1 0.2 0.3 0 0.1-0.1 0.2-0.2 0.2z"/>
				<path id="Layer" class="s3" d="m273.7 339.7h-6.1c-0.2 0-0.3-0.1-0.3-0.2 0-0.2 0.1-0.3 0.3-0.3h6.1c0.1 0 0.2 0.1 0.2 0.3 0 0.1-0.1 0.2-0.2 0.2z"/>
			</g>
		</g>
	</g>
</svg>