<svg version="1.2" xmlns="http://www.w3.org/2000/svg" viewBox="0 0 500 500" width="500" height="500">
	<title>31210233_7780055-svg</title>
	<style>
		.s0 { fill: #407bff } 
		.s1 { fill: #263238 } 
		.s2 { opacity: .6;fill: #ffffff } 
		.s3 { opacity: .5;fill: #ffffff } 
		.s4 { fill: #ffffff } 
	</style>
	<g id="Airplane">
		<g id="Layer">
			<g id="Layer">
				<path id="Layer" class="s0" d="m67.2 273.2c0 0-8-2-12.6-6.4-3.5-3.2-2.7-9 1.5-11.4 5.2-3 15-7.1 28.4-6.5 21.1 0.8 142.1 28.6 142.1 28.6l54.4 13.3-3.1 7.5c0 0-87-2.5-112.4-4.7-25.4-2.3-98.3-20.4-98.3-20.4z"/>
				<path id="Layer" class="s1" d="m241.7 281.2l36.1-23.3c4.5-2.9 10-3.9 15.3-2.9l9.5 2-21.8 34.2z"/>
				<path id="Layer" class="s1" d="m259.2 293.7l18.9 4.6 22.9-1.8c0 0-4.6-3.5-12.4-3.3-1.2 0-27.9 0.5-29.4 0.5z"/>
				<path id="Layer" class="s2" d="m58 254.4l17.7 3.7c0.4 0 0.8-0.1 1-0.4l1.4-1.4c0.6-0.6 0.3-1.7-0.6-1.9l-13.2-2.7c-2.1 0.7-4.3 1.7-6.3 2.7q0 0 0 0z"/>
				<path id="Layer" class="s2" d="m82.7 258.7c-0.3 0.3-0.1 0.8 0.3 0.9l150.7 31.2c0.6 0.2 1.3 0 1.8-0.5 1.1-1.2 0.5-3-1-3.3l-148.8-30.9c-0.2 0-0.4 0-0.6 0.2z"/>
				<path id="Layer" class="s1" d="m124.7 281.3c0-0.1 1.9 2.3 19.6 6.6 17.6 4.3 36.7 4.9 48.2 5.1 11.5 0.3 38.3-0.2 40.4-1.9 2-1.6-41.5-12.8-75.7-12.9-30.7-0.1-33.3-0.2-32.5 3z"/>
				<path id="Layer" class="s1" d="m167.1 284.5l-2.8 13.5c0 0 13.4 3.6 19 0.7 3.9-2.1 3.7-7.5-2.3-10.3-7.6-3.4-13.9-3.9-13.9-3.9z"/>
				<path id="Layer" class="s3" d="m167.1 284.5l-2.8 13.5c0 0 13.4 3.6 19 0.7 3.9-2.1 3.7-7.5-2.3-10.3-7.6-3.4-13.9-3.9-13.9-3.9z"/>
				<g id="Layer">
					<path id="Layer" class="s1" d="m139.4 279.1l-2.8 13.5c0 0 13.4 3.6 19 0.6 3.9-2 3.7-7.5-2.3-10.2-7.6-3.4-13.9-3.9-13.9-3.9z"/>
					<path id="Layer" class="s3" d="m139.4 279.1l-2.8 13.5c0 0 13.4 3.6 19 0.6 3.9-2 3.7-7.5-2.3-10.2-7.6-3.4-13.9-3.9-13.9-3.9z"/>
				</g>
				<path id="Layer" class="s4" d="m141.2 279.3l-2.8 13.7 1.7 0.4 2.8-13.8q-0.9-0.1-1.7-0.3z"/>
				<path id="Layer" class="s4" d="m169.1 284.8l-2.8 13.7 1.7 0.3 2.8-13.7q-0.9-0.2-1.7-0.3z"/>
				<path id="Layer" class="s0" d="m284.3 274.6c-0.7 3.8-4.4 6.2-8.1 5.4-3.8-0.8-6.2-4.4-5.4-8.2 0.8-3.7 4.4-6.1 8.2-5.3 3.7 0.7 6.1 4.4 5.3 8.1z"/>
			</g>
			<path id="Layer" class="s0" d="m115.8 288.5q0 0-0.1 0l-22.7-5c-0.1-0.1-0.2-0.2-0.2-0.3 0-0.2 0.2-0.2 0.3-0.2l22.7 5c0.2 0.1 0.3 0.2 0.2 0.3 0 0.2-0.1 0.2-0.2 0.2z"/>
			<path id="Layer" class="s0" d="m120.7 289.7q-0.1 0-0.1-0.1l-2.6-0.6c-0.1 0-0.2-0.1-0.2-0.3 0-0.1 0.2-0.2 0.3-0.2l2.6 0.7c0.1 0 0.2 0.1 0.2 0.3 0 0.1-0.1 0.2-0.2 0.2z"/>
		</g>
	</g>
</svg>