<svg width="39" height="24" viewBox="0 0 39 24" fill="none" xmlns="http://www.w3.org/2000/svg">
<path d="M24.7441 2.56543H14.2441V21.4342H24.7441V2.56543Z" fill="#FF5F00"/>
<path d="M14.9105 12C14.9088 10.1828 15.3206 8.38904 16.1147 6.75451C16.9087 5.11998 18.0643 3.68753 19.4938 2.56561C17.7235 1.17415 15.5975 0.308826 13.3587 0.0685353C11.1199 -0.171756 8.85872 0.222674 6.83351 1.20676C4.80829 2.19084 3.1008 3.72488 1.90621 5.63351C0.711617 7.54213 0.078125 9.74835 0.078125 12C0.078125 14.2516 0.711617 16.4579 1.90621 18.3665C3.1008 20.2751 4.80829 21.8092 6.83351 22.7932C8.85872 23.7773 11.1199 24.1718 13.3587 23.9315C15.5975 23.6912 17.7235 22.8258 19.4938 21.4344C18.0643 20.3125 16.9088 18.88 16.1147 17.2455C15.3206 15.611 14.9088 13.8172 14.9105 12V12Z" fill="#EB001B"/>
<path d="M38.9092 12C38.9093 14.2516 38.2759 16.4578 37.0813 18.3665C35.8868 20.2751 34.1794 21.8091 32.1542 22.7932C30.129 23.7773 27.8678 24.1718 25.6291 23.9315C23.3903 23.6912 21.2643 22.8259 19.4941 21.4344C20.9224 20.3113 22.077 18.8787 22.871 17.2444C23.6649 15.6101 24.0774 13.8169 24.0774 12C24.0774 10.1831 23.6649 8.38988 22.871 6.75561C22.077 5.12134 20.9224 3.68866 19.4941 2.5656C21.2643 1.17415 23.3903 0.30882 25.6291 0.0685322C27.8678 -0.171756 30.129 0.222691 32.1542 1.20679C34.1794 2.19088 35.8868 3.72491 37.0813 5.63354C38.2759 7.54217 38.9093 9.74838 38.9092 12V12Z" fill="#F79E1B"/>
<path d="M37.7644 19.4365V19.0502H37.9201V18.9715H37.5234V19.0502H37.6793V19.4365H37.7644ZM38.5345 19.4365V18.9707H38.4129L38.2731 19.2911L38.1332 18.9707H38.0115V19.4365H38.0974V19.0851L38.2285 19.388H38.3176L38.4487 19.0844V19.4365H38.5345Z" fill="#F79E1B"/>
</svg>
