<svg width="44" height="12" viewBox="0 0 44 12" fill="none" xmlns="http://www.w3.org/2000/svg">
<g clip-path="url(#clip0_776_41776)">
<path fill-rule="evenodd" clip-rule="evenodd" d="M12.3328 2.2831e-07V0.0052404C12.3275 0.0052404 10.6769 1.99897e-07 10.2367 1.57729C9.8332 3.02358 8.69608 7.01659 8.66464 7.12664H8.35023C8.35023 7.12664 7.18691 3.04454 6.77818 1.57205C6.338 -0.00523999 4.68211 2.2831e-07 4.68211 2.2831e-07H0.90918V12H4.68211V4.87336H4.83931H4.99652L7.19739 12H9.81748L12.0184 4.8786H12.3328V12H16.1057V2.2831e-07H12.3328Z" fill="white"/>
<path fill-rule="evenodd" clip-rule="evenodd" d="M26.1147 0C26.1147 0 25.0091 0.0995633 24.4903 1.25764L21.8178 7.12664H21.5034V0H17.7305V12H21.2938C21.2938 12 22.4519 11.8952 22.9706 10.7424L25.5907 4.87336H25.9051V12H29.6781V0H26.1147Z" fill="white"/>
<path fill-rule="evenodd" clip-rule="evenodd" d="M31.3545 5.44971V11.9999H35.1274V8.1746H39.2148C40.9964 8.1746 42.5056 7.03748 43.0663 5.44971H31.3545Z" fill="white"/>
<path fill-rule="evenodd" clip-rule="evenodd" d="M39.2147 0H30.8252C31.2444 2.28472 32.9579 4.11878 35.1745 4.71616C35.6776 4.8524 36.2069 4.92576 36.7518 4.92576H43.2182C43.2759 4.65327 43.3021 4.37555 43.3021 4.08734C43.3021 1.82882 41.4732 0 39.2147 0Z" fill="white"/>
</g>
<defs>
<clipPath id="clip0_776_41776">
<rect width="42.393" height="12" fill="white" transform="translate(0.90918)"/>
</clipPath>
</defs>
</svg>
